PathFileType	4	(X/Y/Z)	C:/Users/opensim2020/Desktop/walking_exp_matlab/subject02_walking15_straight_02.trc																																																																																																																												
DataRate	CameraRate	NumFrames	NumMarkers	Units	OrigDataRate	OrigDataStartFrame	OrigNumFrames																																																																																																																								
100	100	4	42	mm	100	958	142																																																																																																																								
Frame#	Time	LFHD			RFHD			LBHD			RBHD			C7			T10			CLAV			STRN			RBAK			LSHO			LUPA			LELB			LFRM			LWRA			LWRB			LFIN			RSHO			RUPA			RELB			RFRM			RWRA			RWRB			RFIN			LASI			RASI			LPSI			RPSI			LTHI			LKNE			LTIB			LANK			LHEE			LTOE			RTHI			RKNE			RTIB			RANK			RHEE			RTOE			*39			*40			*41		
		X1	Y1	Z1	X2	Y2	Z2	X3	Y3	Z3	X4	Y4	Z4	X5	Y5	Z5	X6	Y6	Z6	X7	Y7	Z7	X8	Y8	Z8	X9	Y9	Z9	X10	Y10	Z10	X11	Y11	Z11	X12	Y12	Z12	X13	Y13	Z13	X14	Y14	Z14	X15	Y15	Z15	X16	Y16	Z16	X17	Y17	Z17	X18	Y18	Z18	X19	Y19	Z19	X20	Y20	Z20	X21	Y21	Z21	X22	Y22	Z22	X23	Y23	Z23	X24	Y24	Z24	X25	Y25	Z25	X26	Y26	Z26	X27	Y27	Z27	X28	Y28	Z28	X29	Y29	Z29	X30	Y30	Z30	X31	Y31	Z31	X32	Y32	Z32	X33	Y33	Z33	X34	Y34	Z34	X35	Y35	Z35	X36	Y36	Z36	X37	Y37	Z37	X38	Y38	Z38	X39	Y39	Z39	X40	Y40	Z40	X41	Y41	Z41	X42	Y42	Z42
																																																																																																																															
89	0.88	239.07465	1714.80725	966.39948	233.96448	1700.63965	1108.82031	110.73453	1635.93005	955.40741	93.48123	1620.5365	1097.89209	57.15163	1498.34387	1022.50311	3.24268	1224.47791	1042.62927	200.18443	1432.61804	1023.82782	249.47646	1260.25745	1038.31482	-5.78577	1326.2644	1088.14294	146.36008	1472.93079	851.82239	181.88411	1285.71033	759.14374	227.49828	1149.44299	735.97284	330.00168	1063.24927	758.91742	443.63364	1029.94934	829.67963	424.29391	992.08301	792.77258	484.70062	970.74841	807.0036	121.00822	1471.16846	1214.45435	47.83438	1296.88733	1298.97961	32.67753	1154.08875	1328.1759	29.08876	1035.271	1356.53125	37.75245	897.06543	1344.20532	-5.04544	910.75122	1379.06873	4.74387	836.43427	1378.34229	211.8246	961.58209	906.25104	242.31123	955.1416	1161.34924	13.28652	1004.92169	1014.01263	21.22631	1004.0899	1125.33875	75.60461	662.64178	870.83679	-2.50025	473.72269	910.92163	-110.98842	310.88	919.29871	-164.70546	90.95969	956.09735	-201.55121	70.57312	1010.40088	-16.96851	32.60852	932.63641	230.83218	659.13184	1257.55212	307.56897	465.67911	1227.53748	345.44827	285.53119	1251.2146	418.67474	101.95212	1236.34338	416.06647	36.49606	1181.27283	581.60541	110.67433	1253.99255	131.61981	1779.60693	1049.60779	-2845.29297	1034.27661	3360.4668	NaN	NaN	NaN
90	0.89	252.23077	1712.26636	966.56903	248.05669	1698.31348	1109.7771	124.34492	1633.70972	956.47791	107.4243	1618.4043	1099.17334	70.78896	1495.83508	1023.99744	17.4494	1221.9104	1044.6427	213.95399	1430.40979	1025.39807	263.54083	1258.27283	1039.92896	8.05011	1323.81348	1090.1394	159.86719	1470.45166	853.3432	196.77631	1283.85144	760.2005	243.4892	1148.27209	736.19086	347.8819	1065.2251	760.3595	461.94662	1035.9646	832.40088	444.92868	997.47845	795.6153	505.91296	978.57727	810.50037	134.47749	1469.02637	1216.16162	60.11664	1295.37646	1300.57886	43.4061	1152.98352	1329.56409	37.95589	1034.63354	1358.61609	45.36197	896.3338	1348.16736	1.36121	910.76721	1381.65039	10.33052	836.25824	1381.85034	226.1864	959.74213	907.17511	257.81937	953.34143	1162.05615	27.89427	1002.41516	1016.72821	36.73303	1001.7478	1128.13025	86.94728	661.90106	871.51721	7.33104	473.93106	911.21252	-104.46204	313.40482	919.5528	-163.01346	94.45401	955.72736	-200.26468	75.2169	1010.01929	-16.84221	32.51204	932.41418	246.32327	656.87659	1258.60596	325.74384	465.0553	1228.58093	364.26328	284.76385	1252.92969	437.39926	101.0978	1237.39502	433.94931	34.85197	1182.35425	600.96039	109.8535	1251.10498	145.75635	1777.26245	1050.50195	-2845.98047	1034.39575	3357.56152	NaN	NaN	NaN
91	0.9	266.33136	1709.48596	967.79865	262.20111	1696.15918	1110.72412	137.95763	1631.71008	957.98401	121.24584	1616.35938	1100.58716	84.18629	1493.51868	1025.43579	31.75624	1219.39063	1046.69092	227.7393	1428.46643	1027.05322	277.75565	1256.50806	1041.61877	22.01716	1321.16162	1091.87659	173.2598	1468.18799	854.99225	210.8455	1282.29565	761.35828	259.09839	1147.23376	736.51697	366.02408	1067.38757	761.52283	479.30914	1041.82861	834.8194	463.56479	1002.56708	797.83679	525.36761	985.65955	813.47162	147.95964	1467.18274	1217.7572	72.5428	1293.89856	1301.83826	54.66278	1152.00208	1331.14624	47.04716	1033.80713	1361.14551	53.30877	895.41547	1352.08154	8.85231	910.81653	1384.17566	16.86841	836.18103	1385.51929	240.81602	957.92188	908.21655	273.51999	951.92133	1163.0498	42.99723	1000.14935	1019.37793	52.43587	999.70386	1130.94507	98.88585	661.14362	872.01978	18.16584	474.22339	911.3136	-97.36811	316.36362	919.72614	-161.18138	98.52595	955.12976	-198.53682	80.58466	1009.32312	-16.67381	32.42417	932.19482	264.07645	655.78296	1259.979	344.98837	464.80569	1229.75171	382.11377	283.63635	1254.1991	452.05225	99.03592	1237.55017	446.26794	32.7866	1183.17395	615.54767	105.68253	1247.50085	160.26053	1775.49207	1051.92834	-2845.6687	1034.37427	3358.18555	NaN	NaN	NaN
92	0.91	280.32684	1707.07239	968.83453	276.25742	1694.22852	1111.92456	152.18768	1629.23047	959.46356	135.13872	1614.79004	1102.10608	97.56813	1491.51953	1027.29529	46.19197	1217.06006	1048.76111	241.56848	1426.72339	1028.81738	292.14981	1255.09363	1043.52502	36.06372	1318.76257	1093.37964	186.56403	1466.15125	856.71088	225.03879	1280.96582	762.64093	274.00043	1146.31677	736.9668	382.00058	1069.10193	762.96478	495.8764	1047.01196	836.87494	481.5668	1007.03589	799.91425	544.04742	992.63861	816.16309	161.48091	1465.29724	1219.22864	85.29623	1292.48438	1303.38489	66.45301	1151.1123	1332.97314	57.20772	1033.32263	1363.54944	62.29439	894.75635	1355.98279	17.34147	910.96844	1386.99011	24.52017	836.30524	1389.29309	255.96564	956.11523	909.47137	289.78766	950.90881	1164.4613	58.70961	997.99072	1021.82483	68.35363	997.96173	1133.69238	111.93547	660.74438	872.93915	30.09574	474.46176	911.39594	-89.35514	319.59775	919.70441	-158.85419	103.20913	954.22412	-196.13258	86.67406	1007.94397	-16.61205	32.37286	931.77515	283.39767	655.72052	1261.77747	364.5174	464.19293	1230.52539	398.52948	282.15616	1254.9043	463.20068	95.98759	1236.96863	455.21463	29.79127	1183.18884	626.75616	99.26495	1243.88611	174.19179	1773.48535	1052.59827	-2846.69336	1034.57532	3355.34814	NaN	NaN	NaN
